<svg xmlns="http://www.w3.org/2000/svg" width="36" height="30" viewBox="0 0 36 30">
  <defs>
    <linearGradient id="github-character-a" x1="100%" x2="0%" y1="85.889%" y2="14.111%">
      <stop offset="0%" stop-color="#D0EDF1"/>
      <stop offset="66.229%" stop-color="#1F567A"/>
      <stop offset="100%" stop-color="#1F567A"/>
    </linearGradient>
  </defs>
  <path fill="url(#github-character-a)" d="M32.5148732,8.2245727 C32.8979763,7.07367431 33.0897515,5.88061164 33.0897515,4.64493693 C33.0897515,2.99717163 32.7275923,1.44880957 32.0042429,0 C30.486588,0 29.1459506,0.277239496 27.9823307,0.831046843 C26.8193071,1.38500345 25.4929056,2.24433394 24.0037971,3.40903833 C22.1313618,2.95455959 20.1446664,2.72732022 18.0454997,2.72732022 C15.7471044,2.72732022 13.5552178,2.97605218 11.4699144,3.47314297 C9.95211038,2.27985642 8.61147298,1.40298856 7.44815121,0.841793139 C6.28482944,0.280597713 4.93718587,0 3.40492236,0 C2.68142388,1.4488842 2.3197119,2.99732089 2.3197119,4.64501155 C2.3197119,5.89508929 2.5111144,7.10248035 2.89421755,8.26703549 C0.96461496,10.5256978 0,13.3380183 0,16.7045192 C0,19.6593773 0.439599678,22.0099055 1.31932077,23.7572979 C1.78761592,24.6802106 2.39745053,25.4970037 3.14942089,26.2074533 C3.90109311,26.917455 4.75942303,27.4931281 5.72418706,27.9335769 C6.68910016,28.373578 7.66064675,28.7396237 8.63964671,29.03052 C9.61857214,29.3215655 10.700205,29.5348496 11.8848434,29.6692529 C13.0694073,29.8047756 14.1156366,29.8934326 15.0235314,29.9363431 C15.9314262,29.9784328 16.9385254,30 18.0454252,30 C19.3503609,30 20.5345521,29.9677611 21.5990422,29.9042535 C22.6631597,29.8404474 23.8793258,29.6838798 25.2485096,29.4358941 C26.6174698,29.1871622 27.8234249,28.8495494 28.8663747,28.4235782 C29.909101,27.997607 30.9094921,27.3866353 31.8670264,26.5914094 C32.8245606,25.7956612 33.5726552,24.8512558 34.1120555,23.7573725 C34.9769444,21.9959502 35.4098361,19.6448996 35.4098361,16.7045938 C35.4093143,13.3238391 34.4446248,10.4972649 32.5148732,8.2245727 Z M25.1954416,14.3180207 C26.8692446,14.3180207 28.1955716,14.9147386 29.174497,16.1077266 C30.1534969,17.3008639 30.6426615,18.749375 30.6426615,20.4543792 C30.6426615,21.704457 30.4156319,22.7949821 29.962169,23.7248351 C29.5081098,24.6555091 28.933455,25.3864064 28.2384284,25.9196167 C27.5431037,26.4523792 26.6778421,26.8783504 25.6423456,27.1983512 C24.6063274,27.5178296 23.6137623,27.7272332 22.6631597,27.8263379 C21.7122589,27.9258904 20.6557439,27.9754427 19.492124,27.9754427 L15.9170412,27.9754427 C14.753794,27.9754427 13.6966828,27.9258904 12.7463037,27.8263379 C11.7958502,27.7272332 10.8028379,27.5178296 9.76711777,27.1983512 C8.73177035,26.8783504 7.86650879,26.4523792 7.17118403,25.9196167 C6.47585928,25.3863318 5.90135363,24.6555091 5.44736895,23.7248351 C4.99345881,22.7941612 4.7664292,21.7042331 4.7664292,20.4543792 C4.7664292,18.749375 5.25589191,17.3003415 6.23489188,16.1077266 C7.2138173,14.9144401 8.54014424,14.3180207 10.2140218,14.3180207 C10.8243036,14.3180207 12.2074997,14.4670509 14.3638338,14.7654099 C15.3710075,14.9216043 16.4847643,14.9997388 17.7046572,14.9997388 C18.9249227,14.9997388 20.0385305,14.9218282 21.0455551,14.7654099 C23.2306592,14.4669763 24.6134081,14.3180207 25.1954416,14.3180207 Z M11.0656478,16.2295082 C10.4736833,16.2295082 9.96313427,16.4766546 9.53348262,16.9701086 C9.10405301,17.4633338 8.80096541,18.0150476 8.62495997,18.6240298 C8.44858445,19.234232 8.36065574,19.8291831 8.36065574,20.410103 C8.36065574,20.9904128 8.44880649,21.5854401 8.62495997,22.1955661 C8.80074337,22.8049296 9.10368294,23.3563383 9.53348262,23.8494873 C9.96335631,24.3432463 10.4736833,24.5901639 11.0656478,24.5901639 C11.6574643,24.5901639 12.1681613,24.3427888 12.5976649,23.8494873 C13.0272426,23.356262 13.3301821,22.8049296 13.5061876,22.1955661 C13.6823411,21.5854401 13.7704918,20.9904128 13.7704918,20.410103 C13.7704918,19.8297169 13.6825631,19.234232 13.5061876,18.6240298 C13.3301081,18.0152764 13.0274646,17.4637914 12.5976649,16.9701086 C12.1679393,16.4763496 11.6574643,16.2295082 11.0656478,16.2295082 Z M24.3444103,16.2295082 C23.7529639,16.2295082 23.2420448,16.4766546 22.8122452,16.9701086 C22.3826675,17.4633338 22.079802,18.0150476 21.9040186,18.6240298 C21.727495,19.234232 21.6393443,19.8291831 21.6393443,20.410103 C21.6393443,20.9904128 21.727495,21.5854401 21.9040186,22.1955661 C22.079802,22.8049296 22.3827415,23.3563383 22.8122452,23.8494873 C23.2421188,24.3432463 23.7529639,24.5901639 24.3444103,24.5901639 C24.9360788,24.5901639 25.4467758,24.3427888 25.8762794,23.8494873 C26.305635,23.356262 26.6087226,22.8049296 26.7850241,22.1955661 C26.9611036,21.5854401 27.0491803,20.9904128 27.0491803,20.410103 C27.0491803,19.8297169 26.9611036,19.234232 26.7850241,18.6240298 C26.6087966,18.0152764 26.305635,17.4637914 25.8762794,16.9701086 C25.4467018,16.4763496 24.9360788,16.2295082 24.3444103,16.2295082 Z"/>
</svg>
