<svg xmlns="http://www.w3.org/2000/svg" width="30" height="30" viewBox="0 0 30 30">
  <defs>
    <linearGradient id="linkedin-a" x1="100%" x2="0%" y1="100%" y2="0%">
      <stop offset="0%" stop-color="#D0EDF1"/>
      <stop offset="66.229%" stop-color="#1F567A"/>
      <stop offset="100%" stop-color="#1F567A"/>
    </linearGradient>
  </defs>
  <path fill="url(#linkedin-a)" d="M7.36271115,10 C7.63583522,10 7.85714286,10.2133112 7.85714286,10.4763538 L7.85714286,10.4763538 L7.85714286,29.5236462 C7.85714286,29.786784 7.63583522,30 7.36271115,30 L7.36271115,30 L1.20871742,30 C0.935593348,30 0.714285714,29.786784 0.714285714,29.5236462 L0.714285714,29.5236462 L0.714285714,10.4763538 C0.714285714,10.2133112 0.935593348,10 1.20871742,10 L1.20871742,10 Z M22.1946385,9.28571429 C29.0726313,9.28571429 30,14.1697623 30,18.9473943 L30,18.9473943 L30,29.5180438 C30,29.7842764 29.7803988,30 29.5093806,30 L29.5093806,30 L23.4139257,30 C23.1429076,30 22.9233064,29.7842764 22.9233064,29.5180438 L22.9233064,29.5180438 L22.9233064,20.1484292 C22.9233064,17.5250451 22.7259793,15.5183722 20.2428566,15.5183722 C17.9628503,15.5183722 17.0744368,16.7701089 17.0744368,19.9831182 L17.0744368,19.9831182 L17.0744368,29.5179474 C17.0744368,29.78418 16.8548355,30 16.5838174,30 L16.5838174,30 L10.4906194,30 C10.2196012,30 10,29.78418 10,29.5179474 L10,29.5179474 L10,10.2466386 C10,9.98050238 10.2196012,9.76468238 10.4906194,9.76468238 L10.4906194,9.76468238 L16.338704,9.76468238 C16.6097221,9.76468238 16.8293233,9.98050238 16.8293233,10.2466386 L16.8293233,10.2466386 L16.8293233,11.4982789 C17.9289976,10.3214382 19.7420323,9.28571429 22.1946385,9.28571429 Z M3.93015053,0 C6.09553275,0 7.85723856,1.76199007 7.85714286,3.92775755 C7.85714286,6.09438679 6.09553275,7.85714286 3.93015053,7.85714286 C1.76304566,7.85714286 0,6.09448254 0,3.92775755 C0,1.76199007 1.76304566,0 3.93015053,0 Z"/>
</svg>
