<svg xmlns="http://www.w3.org/2000/svg" width="30" height="30" viewBox="0 0 30 30">
  <g fill="#1F567A">
    <path d="M7.36271115 10L1.20871742 10C.935593348 10 .714285714 10.2133112.714285714 10.4763538L.714285714 29.5236462C.714285714 29.786784.935593348 30 1.20871742 30L7.36271115 30C7.63583522 30 7.85714286 29.786784 7.85714286 29.5236462L7.85714286 10.4763538C7.85714286 10.2133112 7.63583522 10 7.36271115 10zM3.93015053 0C1.76304566 0 0 1.76199007 0 3.92775755 0 6.09448254 1.76304566 7.85714286 3.93015053 7.85714286 6.09553275 7.85714286 7.85714286 6.09438679 7.85714286 3.92775755 7.85723856 1.76199007 6.09553275 0 3.93015053 0zM22.1946385 9.28571429C19.7420323 9.28571429 17.9289976 10.3214382 16.8293233 11.4982789L16.8293233 10.2466386C16.8293233 9.98050238 16.6097221 9.76468238 16.338704 9.76468238L10.4906194 9.76468238C10.2196012 9.76468238 10 9.98050238 10 10.2466386L10 29.5179474C10 29.78418 10.2196012 30 10.4906194 30L16.5838174 30C16.8548355 30 17.0744368 29.78418 17.0744368 29.5179474L17.0744368 19.9831182C17.0744368 16.7701089 17.9628503 15.5183722 20.2428566 15.5183722 22.7259793 15.5183722 22.9233064 17.5250451 22.9233064 20.1484292L22.9233064 29.5180438C22.9233064 29.7842764 23.1429076 30 23.4139257 30L29.5093806 30C29.7803988 30 30 29.7842764 30 29.5180438L30 18.9473943C30 14.1697623 29.0726313 9.28571429 22.1946385 9.28571429z"/>
  </g>
</svg>
