<svg xmlns="http://www.w3.org/2000/svg" width="494" height="494" viewBox="0 0 494 494">
  <defs>
    <linearGradient id="a-a" x1="104.376%" x2="-2.592%" y1="100%" y2="0%">
      <stop offset="0%" stop-color="#D0EDF1"/>
      <stop offset="66.229%" stop-color="#1F567A"/>
      <stop offset="100%" stop-color="#1F567A"/>
    </linearGradient>
  </defs>
  <path fill="url(#a-a)" d="M489,494 L489,480.031724 C482.218531,479.577471 475.327684,475.773103 468.327458,468.618621 C461.327232,461.464138 454.983277,450.391724 449.295593,435.401379 L449.295593,435.401379 L286.540339,0 C277.133785,0.908505747 265.430282,1.36275862 251.429831,1.36275862 C237.429379,1.36275862 225.616497,0.908505747 215.991186,0 L215.991186,0 L66.6894915,398.266207 C56.4079096,425.975632 46.2903955,446.076322 36.3369492,458.568276 C26.3835028,471.06023 15.9378531,478.214713 5,480.031724 L5,480.031724 L5,494 C18.3441808,492.637241 35.6259887,491.955862 56.8454237,491.955862 C82.0024859,491.955862 111.315932,492.637241 144.785763,494 L144.785763,494 L144.785763,480.031724 C124.660113,479.350345 109.511186,475.489195 99.3389831,468.448276 C89.1667797,461.407356 84.080678,448.347586 84.080678,429.268966 C84.080678,407.691954 91.299661,377.370575 105.737627,338.304828 L105.737627,338.304828 L117.222373,306.961379 L252.742373,306.961379 L292.774915,421.433103 C298.243842,436.423448 300.978305,447.43908 300.978305,454.48 C300.978305,463.565057 297.314124,469.924598 289.985763,473.558621 C282.657401,477.192644 270.571073,479.350345 253.72678,480.031724 L253.72678,480.031724 L253.72678,494 C277.790056,492.637241 315.416271,491.955862 366.605424,491.955862 L372.247317,491.958886 C418.951626,492.009284 457.869187,492.689655 489,494 L489,494 Z M249,291 L123,291 L187.809399,118 L249,291 Z"/>
</svg>
