<svg xmlns="http://www.w3.org/2000/svg" width="494" height="494" viewBox="0 0 494 494">
  <defs>
    <linearGradient id="c-a" x1="91.533%" x2="9.829%" y1="100%" y2="0%">
      <stop offset="0%" stop-color="#D0EDF1"/>
      <stop offset="66.229%" stop-color="#1F567A"/>
      <stop offset="100%" stop-color="#1F567A"/>
    </linearGradient>
  </defs>
  <path fill="url(#c-a)" d="M289.144186,494 C307.288372,494 323.574419,492.08908 338.002326,488.267241 C352.430233,484.445402 365.273256,479.531609 376.531395,473.525862 C387.789535,467.520115 400.086047,459.821839 413.42093,450.431034 C419.104651,446.718391 423.695349,444.862069 427.193023,444.862069 C432.002326,444.862069 435.663953,447.974138 438.177907,454.198276 C440.69186,460.422414 442.495349,470.522989 443.588372,484.5 L443.588372,484.5 L459,484.5 C457.317157,452.767404 456.443983,397.779569 456.38048,319.536496 L456.376744,310.224138 L440.965116,310.224138 C438.77907,336.867816 435.663953,358.979885 431.619767,376.560345 C427.575581,394.140805 421.4,409.482759 413.093023,422.586207 C404.786047,435.689655 393.418605,446.718391 378.990698,455.672414 C358.44186,468.994253 337.674419,475.655172 316.688372,475.655172 C284.553488,475.655172 259.140698,464.353448 240.45,441.75 C221.759302,419.146552 208.752326,390.91954 201.42907,357.068966 C194.105814,323.218391 190.444186,286.965517 190.444186,248.310345 C190.444186,209.655172 194.105814,173.402299 201.42907,139.551724 C208.752326,105.701149 221.759302,77.4741379 240.45,54.8706897 C259.140698,32.2672414 284.553488,20.9655172 316.688372,20.9655172 C337.674419,20.9655172 358.44186,27.6264368 378.990698,40.9482759 C393.418605,50.3390805 404.786047,61.4224138 413.093023,74.1982759 C421.4,86.9741379 427.575581,101.387931 431.619767,117.439655 C435.663953,133.491379 438.77907,153.41954 440.965116,177.224138 L440.965116,177.224138 L456.376744,177.224138 C456.376744,97.0747126 457.251163,41.1666667 459,9.5 L459,9.5 L443.588372,9.5 C441.402326,36.1436782 435.718605,49.4655172 426.537209,49.4655172 C422.82093,49.4655172 418.448837,47.5 413.42093,43.5689655 C395.495349,29.8103448 377.077907,19.1091954 358.168605,11.4655172 C339.259302,3.82183908 316.469767,0 289.8,0 C240.395349,0 196.510465,10.4827586 158.145349,31.4482759 C119.780233,52.4137931 89.8313953,81.8965517 68.2988372,119.896552 C46.7662791,157.896552 36,201.574713 36,250.931034 C36,301.37931 46.4930233,344.893678 67.4790698,381.474138 C88.4651163,418.054598 117.976744,445.954023 156.013953,465.172414 C194.051163,484.390805 238.427907,494 289.144186,494 Z"/>
</svg>
