<svg xmlns="http://www.w3.org/2000/svg" width="494" height="494" viewBox="0 0 494 494">
  <defs>
    <linearGradient id="l-a" x1="87.886%" x2="13.357%" y1="100%" y2="0%">
      <stop offset="0%" stop-color="#D0EDF1"/>
      <stop offset="66.229%" stop-color="#1F567A"/>
      <stop offset="100%" stop-color="#1F567A"/>
    </linearGradient>
  </defs>
  <path fill="url(#l-a)" d="M449,494 C445.820686,461.52092 444.231029,420.070345 444.231029,369.648276 C444.231029,343.528736 444.91231,322.178851 446.274874,305.598621 L446.274874,305.598621 L430.264755,305.598621 C425.041596,334.443678 414.822372,362.209885 399.607083,388.897241 C384.391793,415.584598 367.189432,437.104828 348,453.457931 C328.810568,469.811034 311.154019,477.987586 295.030354,477.987586 L295.030354,477.987586 L271.866779,477.987586 C261.193367,477.987586 253.472175,476.965517 248.703204,474.921379 C243.934233,472.877241 240.641372,468.845747 238.824621,462.826897 C237.00787,456.808046 236.099494,447.211954 236.099494,434.038621 L236.099494,434.038621 L236.099494,73.9296552 C236.099494,56.4409195 237.518831,43.7218391 240.357504,35.7724138 C243.196178,27.8229885 248.419337,22.371954 256.026981,19.4193103 C263.634626,16.4666667 275.840922,14.6496552 292.645868,13.9682759 L292.645868,13.9682759 L292.645868,0 C264.03204,1.36275862 222.928049,2.04413793 169.333895,2.04413793 C113.014615,2.04413793 71.5699831,1.36275862 45,0 L45,0 L45,13.9682759 C59.7611017,14.6496552 70.4912872,16.4666667 77.1905565,19.4193103 C83.8898257,22.371954 88.4884767,27.8229885 90.9865093,35.7724138 C93.4845419,43.7218391 94.7335582,56.4409195 94.7335582,73.9296552 L94.7335582,73.9296552 L94.7335582,420.070345 C94.7335582,437.55908 93.5413153,450.278161 91.1568297,458.227586 C88.772344,466.177011 84.2304666,471.628046 77.5311973,474.58069 C70.831928,477.533333 59.9881956,479.350345 45,480.031724 L45,480.031724 L45,494 C96.0456561,492.71295 171.500049,492.033674 271.363177,491.962171 L298.68858,491.959564 C368.673381,492.015086 418.777188,492.695231 449,494 Z"/>
</svg>
