<svg xmlns="http://www.w3.org/2000/svg" width="494" height="494" viewBox="0 0 494 494">
  <defs>
    <linearGradient id="s-a" x1="79.089%" x2="21.866%" y1="100%" y2="0%">
      <stop offset="0%" stop-color="#D0EDF1"/>
      <stop offset="66.229%" stop-color="#1F567A"/>
      <stop offset="100%" stop-color="#1F567A"/>
    </linearGradient>
  </defs>
  <path fill="url(#s-a)" d="M241.76525,494 C275.573013,494 306.218115,489.086207 333.700555,479.258621 C361.182994,469.431034 383.103512,454.525862 399.462107,434.543103 C415.820702,414.560345 424,390.045977 424,361 C424,338.068966 419.365065,317.867816 410.095194,300.396552 C400.825323,282.925287 388.883549,267.692529 374.269871,254.698276 C359.656192,241.704023 340.025878,226.58046 315.378928,209.327586 C278.081331,183.33908 252.834566,165.212644 239.638632,154.948276 C226.442699,144.683908 216.082255,133.764368 208.557301,122.189655 C201.032348,110.614943 197.269871,96.7471264 197.269871,80.5862069 C197.269871,60.9310345 203.595194,45.6436782 216.245841,34.7241379 C228.896488,23.8045977 245.36414,18.3448276 265.648799,18.3448276 C287.896488,18.3448276 307.526802,25.6609195 324.539741,40.2931034 C341.55268,54.9252874 355.021257,73.9252874 364.945471,97.2931034 C374.869686,120.66092 380.704251,145.12069 382.449168,170.672414 L382.449168,170.672414 L397.826248,170.672414 C397.826248,93.5804598 398.916821,38.9827586 401.097967,6.87931034 L401.097967,6.87931034 L385.720887,6.87931034 C384.4122,17.1436782 382.667283,24.6235632 380.486137,29.3189655 C378.304991,34.0143678 375.142329,36.362069 370.998152,36.362069 C368.162662,36.362069 365.218115,35.6522989 362.16451,34.2327586 C359.110906,32.8132184 354.421442,30.3563218 348.096118,26.862069 C333.264325,18.5632184 317.887246,12.0114943 301.96488,7.20689655 C286.042514,2.40229885 265.212569,0 239.475046,0 C209.375231,0 181.783734,4.5862069 156.700555,13.7586207 C131.617375,22.9310345 111.496303,37.0718391 96.3373383,56.1810345 C81.1783734,75.2902299 73.5988909,98.8218391 73.5988909,126.775862 C73.5988909,149.925287 78.7791128,170.399425 89.1395564,188.198276 C99.5,205.997126 112.586876,221.557471 128.400185,234.87931 C144.213494,248.201149 165.643253,263.925287 192.689464,282.051724 C214.937153,296.902299 232.822551,310.16954 246.345656,321.853448 C259.868762,333.537356 270.610906,346.422414 278.572089,360.508621 C286.533272,374.594828 290.513863,390.482759 290.513863,408.172414 C290.513863,428.701149 283.316081,444.752874 268.920518,456.327586 C254.524954,467.902299 234.89464,473.689655 210.029575,473.689655 C170.114603,473.689655 140.560074,457.091954 121.365989,423.896552 C102.171904,390.701149 91.1571165,347.568966 88.3216266,294.5 L88.3216266,294.5 L72.9445471,294.5 C72.9445471,390.155172 71.9630314,455.017241 70,489.086207 L70,489.086207 L85.3770795,489.086207 C86.9038817,478.603448 88.7578558,471.068966 90.9390018,466.482759 C93.1201479,461.896552 96.2828096,459.603448 100.426987,459.603448 C105.443623,459.603448 112.968577,462.770115 123.001848,469.103448 C138.7061,476.747126 155.555453,482.807471 173.549908,487.284483 C191.544362,491.761494 214.28281,494 241.76525,494 Z"/>
</svg>
