<svg xmlns="http://www.w3.org/2000/svg" width="1276" height="494" viewBox="0 0 1276 494">
  <defs>
    <linearGradient id="logo-a" x1="106.646%" x2="-4.787%" y1="55.891%" y2="44.109%">
      <stop offset="0%" stop-color="#D0EDF1"/>
      <stop offset="66.229%" stop-color="#1F567A"/>
      <stop offset="100%" stop-color="#1F567A"/>
    </linearGradient>
  </defs>
  <path fill="url(#logo-a)" d="M108.42257,466 C150.006864,466 179.098023,452.222023 195.696046,424.666068 L195.696046,424.666068 L195.696046,464.389587 C220.860791,459.200479 252.62905,456.605925 291.000824,456.605925 C302.244646,456.605925 313.577705,457.142729 325,458.216338 L325,458.216338 L325,446.675045 C313.756178,446.675045 305.814113,442.872681 301.173806,435.267953 C296.533498,427.663226 294.213344,415.36146 294.213344,398.362657 L294.213344,398.362657 L294.213344,167 C268.691653,172.010174 236.923394,174.51526 198.908567,174.51526 C187.664745,174.51526 176.331686,173.978456 164.90939,172.904847 L164.90939,172.904847 L164.90939,184.44614 C176.153213,184.44614 184.095277,188.248504 188.735585,195.853232 C193.375892,203.457959 195.696046,215.759725 195.696046,232.758528 L195.696046,232.758528 L195.696046,397.825853 C195.696046,405.341113 193.822076,412.095901 190.074135,418.090215 C186.326194,424.08453 181.418177,428.781568 175.350082,432.181329 C169.281988,435.581089 162.856947,437.280969 156.074959,437.280969 C146.794344,437.280969 140.012356,434.462747 135.728995,428.826302 C131.445634,423.189856 129.303954,414.466786 129.303954,402.657092 L129.303954,402.657092 L129.303954,167 C103.603789,172.010174 71.8355299,174.51526 33.9991763,174.51526 C22.7553542,174.51526 11.4222954,173.978456 0,172.904847 L0,172.904847 L0,184.44614 C11.2438221,184.44614 19.1412685,188.248504 23.6923394,195.853232 C28.2434102,203.457959 30.5189456,215.759725 30.5189456,232.758528 L30.5189456,232.758528 L30.5189456,373.132855 C30.5189456,391.563136 31.8128775,406.325254 34.4007414,417.41921 C36.9886052,428.513166 41.0488742,437.370437 46.5815486,443.991023 C58.7177375,458.663674 79.3314113,466 108.42257,466 Z M478.674196,28 L478.674196,205.878899 L479.172011,205.057924 C495.70957,178.101877 523.104014,164.623853 561.355343,164.623853 C579.78801,164.623853 596.093831,169.713761 610.272806,179.893578 C624.451781,190.073394 635.617724,205.477064 643.770634,226.104587 C651.923545,246.73211 656,272.137003 656,302.319266 C656,360.36208 644.346655,401.974312 621.039965,427.155963 C597.733275,452.337615 567.115552,464.92844 529.186794,464.92844 C516.957428,464.92844 506.810599,464.437309 498.746308,463.455046 C490.682016,462.472783 483.016507,460.374312 475.749783,457.159633 C463.34318,452.516208 450.316247,450.194495 436.668983,450.194495 C425.680278,450.194495 415.444831,451.623242 405.962641,454.480734 C396.717507,457.266789 389.62057,460.986608 384.67183,465.64019 L384.295395,466 L376.851434,460.374312 L377.026561,459.821827 C379.332016,452.407351 380.513561,442.889645 380.571198,431.268709 L380.573414,430.370642 L380.573414,93.9009174 L380.571673,93.096539 C380.499688,76.5459508 378.196186,64.5357895 373.661164,57.066055 C369.127323,49.5982638 361.419511,45.804144 350.537729,45.6836958 L350,45.6807339 L350,34.1614679 L352.267454,34.3686361 C362.843394,35.3020836 373.342137,35.7688073 383.763684,35.7688073 C421.869679,35.7688073 453.506516,33.1792049 478.674196,28 Z M822.263676,167 C890.72965,167 925.304967,206.996998 925.989626,286.990994 L926,289.427297 L784.200219,289.427297 L784.172374,289.769017 C783.833534,294.042792 783.664114,300.50813 783.664114,309.165031 C783.664114,344.195064 789.784646,369.133958 802.025711,383.981713 C814.266776,398.829468 829.233042,406.253345 846.924508,406.253345 C873.284792,406.253345 895.266439,394.315243 912.869447,370.43904 L913.401532,369.711864 L922.78337,373.179304 L922.400028,374.361325 C917.233519,390.095152 909.855829,404.771172 900.266958,418.389384 C890.438366,432.348052 877.750547,443.772822 862.203501,452.663693 C846.656455,461.554564 828.607586,466 808.056893,466 C769.636032,466 738.854668,454.130687 715.712801,430.392061 C692.570934,406.653434 681,368.822777 681,316.900089 C681,283.114778 687.075857,255.019625 699.227571,232.61463 C711.379285,210.209634 728.043217,193.672614 749.219365,183.003568 C770.395514,172.334523 794.743618,167 822.263676,167 Z M521.373239,195 C514.415493,195 507.823944,196.69236 501.598592,200.077081 C495.373239,203.461802 490.383803,208.138061 486.630282,214.105858 C482.987158,219.898132 481.112021,226.403633 481.00487,233.622363 L481,234.280576 L481,448.586845 L481.687891,448.938183 C489.728123,452.979394 498.287559,455 507.366197,455 C541.788732,455 559,408.860911 559,316.582734 C559,271.512504 555.658451,239.981158 548.975352,221.988695 C542.292254,203.996232 533.091549,195 521.373239,195 Z M817.468297,178 C807.86519,178 800.148407,185.806452 794.317948,201.419355 C788.546384,216.874552 784.791266,241.717823 783.052595,275.949169 L783,277 L843.962585,277 C844.305553,248.080645 842.290616,224.350806 837.917772,205.810484 C833.544928,187.270161 826.728437,178 817.468297,178 Z M1276,459 L1276,447.501832 C1268.32565,447.501832 1262.30217,446.343101 1257.92957,444.025641 C1253.55697,441.708181 1250.38907,437.697192 1248.42586,431.992674 C1246.46266,426.288156 1245.48105,418.355311 1245.48105,408.194139 L1245.48105,408.194139 L1245.48105,259.787546 C1245.48105,241.426129 1244.18712,226.674603 1241.59926,215.532967 C1239.01139,204.391331 1234.95113,195.522589 1229.41845,188.92674 C1217.28226,174.308913 1196.66859,167 1167.57743,167 C1125.99314,167 1096.90198,180.726496 1080.30395,208.179487 L1080.30395,208.179487 L1080.30395,168.871795 C1054.78226,173.863248 1023.014,176.358974 984.999176,176.358974 C973.933828,176.358974 962.600769,175.824176 951,174.754579 L951,174.754579 L951,186.252747 C962.243822,186.252747 970.185887,190.040904 974.826194,197.617216 C979.466502,205.193529 981.786656,217.449328 981.786656,234.384615 L981.786656,234.384615 L981.786656,408.194139 C981.786656,418.355311 980.805052,426.288156 978.841845,431.992674 C976.878638,437.697192 973.666118,441.708181 969.204283,444.025641 C964.742449,446.343101 958.674355,447.501832 951,447.501832 L951,447.501832 L951,459 C993.119714,457.573871 1020.51538,456.860806 1033.18699,456.860806 L1036.26751,456.875661 C1048.55119,456.984602 1071.70749,457.692715 1105.73641,459 L1105.73641,459 L1105.73641,447.501832 C1099.31137,447.501832 1094.26949,446.343101 1090.61079,444.025641 C1086.95209,441.708181 1084.3196,437.697192 1082.71334,431.992674 C1081.10708,426.288156 1080.30395,418.355311 1080.30395,408.194139 L1080.30395,408.194139 L1080.30395,234.919414 C1080.30395,227.432234 1082.17792,220.702686 1085.92586,214.730769 C1089.67381,208.758852 1094.58182,204.079365 1100.64992,200.692308 C1106.71801,197.30525 1113.14305,195.611722 1119.92504,195.611722 C1129.20566,195.611722 1135.98764,198.419414 1140.271,204.034799 C1144.55437,209.650183 1146.69605,218.340659 1146.69605,230.106227 L1146.69605,230.106227 L1146.69605,408.194139 C1146.69605,418.533578 1145.89292,426.510989 1144.28666,432.126374 C1142.6804,437.741758 1140.09253,441.708181 1136.52306,444.025641 C1132.9536,446.343101 1127.95634,447.501832 1121.5313,447.501832 L1121.5313,447.501832 L1121.5313,459 C1160.79544,457.573871 1186.76332,456.860806 1199.43493,456.860806 L1202.39716,456.873464 C1215.2219,456.974727 1239.75618,457.683573 1276,459 L1276,459 Z"/>
</svg>
